<?xml version="1.0" standalone="no"?>
<!DOCTYPE svg PUBLIC "-//W3C//DTD SVG 20010904//EN"
 "http://www.w3.org/TR/2001/REC-SVG-20010904/DTD/svg10.dtd">
<svg version="1.0" xmlns="http://www.w3.org/2000/svg"
 width="260.000000pt" height="260.000000pt" viewBox="0 0 260.000000 260.000000"
 preserveAspectRatio="xMidYMid meet">
<metadata>
Created by potrace 1.14, written by Peter Selinger 2001-2017
</metadata>
<g transform="translate(0.000000,260.000000) scale(0.100000,-0.100000)"
fill="#000000" stroke="none">
<path d="M1256 2593 c-1 -1 -33 -5 -70 -8 -213 -17 -415 -85 -586 -196 -181
-117 -321 -265 -423 -447 -58 -105 -118 -253 -131 -326 -3 -14 -8 -31 -12 -38
-5 -10 -4 -10 5 -2 6 6 14 21 16 35 20 101 107 299 181 409 95 143 246 284
397 372 76 44 236 113 283 122 16 2 45 9 64 15 153 44 460 53 590 16 163 -46
370 -178 553 -355 132 -126 298 -348 312 -416 20 -98 27 -427 12 -544 -4 -30
-9 -68 -11 -85 -9 -73 -57 -276 -76 -325 -6 -14 -12 -36 -15 -49 -4 -19 -115
-139 -115 -124 0 2 -24 -15 -54 -39 -29 -24 -62 -49 -72 -55 -11 -7 -35 -24
-54 -38 -19 -13 -45 -29 -57 -34 -13 -6 -23 -15 -23 -21 0 -5 -3 -9 -7 -8 -12
3 -83 -35 -83 -44 0 -4 -9 -8 -20 -8 -11 0 -20 -4 -20 -10 0 -5 -9 -10 -20
-10 -11 0 -20 -5 -20 -11 0 -5 -4 -7 -10 -4 -5 3 -10 1 -10 -4 0 -6 -3 -10 -7
-9 -5 1 -39 -13 -78 -31 -38 -18 -74 -34 -80 -35 -5 -1 -32 -12 -59 -24 -27
-12 -56 -22 -66 -22 -9 0 -20 -3 -24 -7 -3 -4 -14 -8 -24 -10 -9 -2 -24 -5
-32 -7 -8 -1 -37 6 -65 17 -27 10 -56 19 -62 20 -7 0 -13 4 -13 9 0 4 -9 8
-20 8 -11 0 -28 4 -38 10 -38 22 -198 93 -210 93 -6 0 -10 3 -7 5 3 3 -32 25
-76 49 -45 25 -104 61 -132 80 -29 20 -57 36 -64 36 -7 0 -10 4 -7 9 3 4 1 8
-4 8 -4 0 -18 9 -30 20 -12 12 -22 18 -22 15 0 -3 -11 4 -24 17 -56 52 -110
93 -120 90 -6 -2 -8 0 -4 4 4 4 -3 16 -17 28 -13 12 -25 30 -25 41 -1 11 -2
46 -3 78 -1 31 -5 57 -8 57 -8 0 -3 365 6 445 10 94 13 117 20 163 9 57 13 77
15 77 1 0 4 11 6 25 2 14 8 48 14 75 6 28 13 57 14 65 3 17 107 91 117 84 4
-2 9 -1 11 4 4 9 134 72 150 72 5 0 7 7 4 16 -3 9 -2 12 4 9 15 -9 101 26 93
38 -3 6 -1 7 6 3 7 -4 29 0 49 10 20 10 42 19 47 20 6 2 76 26 157 53 81 28
159 53 174 55 20 4 45 -7 103 -46 119 -80 317 -225 423 -310 l96 -77 -3 -113
c-5 -158 -16 -457 -19 -493 -2 -27 -18 -40 -187 -146 -101 -63 -213 -131 -249
-151 l-65 -36 -50 25 c-27 13 -120 60 -205 105 -85 44 -165 86 -177 92 -13 6
-25 17 -28 25 -9 23 -16 142 -19 312 l-3 156 169 102 c93 55 173 101 179 101
12 0 278 -138 294 -152 5 -5 10 -21 11 -36 1 -15 5 -70 9 -122 9 -113 9 -131
-2 -140 -4 -3 -49 -36 -99 -73 l-90 -66 -45 15 c-48 16 -100 38 -139 57 -27
13 -36 43 -44 142 l-5 60 59 48 c33 26 65 47 72 47 22 0 122 -41 130 -53 4 -6
10 -33 13 -60 7 -48 6 -51 -29 -83 -37 -34 -43 -35 -108 -18 -9 3 -22 21 -28
40 -11 32 -10 38 11 60 48 51 121 14 84 -42 -10 -16 -22 -23 -32 -20 -8 3 -17
6 -19 6 -2 0 -4 4 -4 9 0 4 12 6 26 3 23 -4 25 -2 22 24 -4 36 -36 44 -61 16
-14 -15 -15 -25 -8 -46 6 -14 14 -26 18 -27 5 0 19 -2 32 -5 16 -3 32 3 48 18
25 24 28 41 13 85 -9 24 -19 32 -60 42 l-50 13 -40 -39 -40 -38 11 -60 c7 -33
15 -63 18 -67 4 -4 37 -19 75 -32 l69 -25 69 55 c60 49 69 59 64 82 -3 15 -8
52 -12 82 -9 73 -12 92 -20 99 -3 3 -51 27 -107 52 l-101 47 -116 -78 -116
-79 2 -43 c1 -24 5 -79 9 -123 3 -44 8 -100 10 -124 3 -44 19 -65 43 -56 7 3
10 0 7 -5 -3 -6 -1 -11 4 -11 19 -2 24 -5 155 -68 71 -34 136 -59 145 -56 9 3
88 53 176 113 l160 107 0 237 0 238 -120 79 c-66 43 -171 111 -232 150 l-113
71 -97 -41 c-99 -42 -370 -175 -452 -222 -47 -27 -47 -28 -56 -119 -4 -32 -8
-66 -10 -76 -3 -19 -18 -289 -17 -307 1 -5 2 -74 4 -152 l4 -142 29 -23 c75
-59 323 -218 340 -218 3 0 17 -8 32 -17 14 -10 33 -18 41 -19 8 -2 18 -8 22
-14 4 -7 10 -11 14 -11 9 1 40 -12 46 -19 10 -13 88 -39 95 -32 5 4 5 2 2 -4
-10 -17 109 -65 136 -54 65 25 216 100 317 158 132 75 389 241 407 263 10 13
18 45 28 114 2 17 6 40 9 52 4 19 9 56 21 148 4 32 15 157 21 240 2 28 4 119
5 203 l1 153 -38 47 c-59 73 -261 271 -344 337 -41 33 -80 65 -87 71 -22 21
-238 162 -286 187 -32 17 -60 24 -85 21 -241 -21 -399 -54 -587 -121 -241 -86
-555 -272 -529 -314 3 -5 1 -9 -4 -9 -18 0 -126 -272 -148 -371 -3 -13 -7 -35
-10 -49 -3 -14 -7 -32 -9 -40 -2 -8 -4 -15 -5 -15 -3 0 -19 -118 -26 -200 -13
-138 -4 -307 21 -420 3 -16 8 -43 11 -58 2 -15 9 -38 16 -50 6 -12 11 -24 10
-27 -14 -58 217 -336 368 -441 19 -13 43 -32 54 -41 11 -10 32 -24 48 -30 15
-7 28 -17 28 -21 0 -5 4 -5 10 -2 6 3 10 2 10 -3 0 -13 203 -113 240 -118 30
-4 156 -46 185 -62 23 -12 58 -16 155 -16 69 0 152 3 185 7 147 19 368 95 474
162 23 14 43 25 47 25 16 0 176 135 240 202 182 192 291 413 340 693 10 62 12
277 2 342 -14 96 -16 106 -33 168 -9 33 -18 68 -20 78 -2 10 -16 43 -30 74
-14 30 -25 59 -25 63 0 19 -88 161 -146 236 -150 193 -356 344 -589 430 -23 8
-20 7 -95 27 -103 28 -352 62 -364 50z"/>
<path d="M31 1545 c-1 -11 -4 -31 -6 -45 l-6 -25 11 25 c6 13 9 33 7 45 -4 19
-4 19 -6 0z"/>
<path d="M15 1460 c-3 -5 -1 -10 4 -10 6 0 11 5 11 10 0 6 -2 10 -4 10 -3 0
-8 -4 -11 -10z"/>
<path d="M15 1429 c-4 -6 -5 -12 -2 -15 2 -3 7 2 10 11 7 17 1 20 -8 4z"/>
<path d="M12 1345 c0 -16 2 -22 5 -12 2 9 2 23 0 30 -3 6 -5 -1 -5 -18z"/>
<path d="M8 1280 c2 -16 6 -30 8 -30 2 0 4 14 4 30 0 17 -4 30 -8 30 -5 0 -7
-13 -4 -30z"/>
<path d="M21 1154 c0 -11 3 -14 6 -6 3 7 2 16 -1 19 -3 4 -6 -2 -5 -13z"/>
<path d="M38 1043 c5 -21 7 -23 10 -9 2 10 0 22 -6 28 -6 6 -7 0 -4 -19z"/>
<path d="M50 994 c0 -10 5 -26 10 -34 8 -11 9 -7 4 15 -8 37 -14 45 -14 19z"/>
<path d="M66 927 c3 -10 9 -15 12 -12 3 3 0 11 -7 18 -10 9 -11 8 -5 -6z"/>
<path d="M91 870 c0 -8 4 -22 9 -30 12 -18 12 -2 0 25 -6 13 -9 15 -9 5z"/>
<path d="M111 815 c0 -5 6 -21 14 -35 8 -14 14 -20 14 -15 0 6 -6 21 -14 35
-8 14 -14 21 -14 15z"/>
<path d="M176 683 c51 -92 137 -204 221 -286 67 -66 225 -187 245 -187 5 0
-26 24 -69 52 -148 100 -298 263 -388 423 -20 36 -38 65 -41 65 -3 0 11 -30
32 -67z"/>
<path d="M660 201 c0 -8 90 -54 96 -49 1 2 -20 15 -47 30 -27 14 -49 23 -49
19z"/>
<path d="M784 136 c11 -9 27 -16 35 -15 14 0 14 1 1 6 -8 3 -24 10 -35 15 -20
9 -20 9 -1 -6z"/>
<path d="M905 90 c11 -5 27 -9 35 -9 9 0 8 4 -5 9 -11 5 -27 9 -35 9 -9 0 -8
-4 5 -9z"/>
<path d="M1015 66 c26 -12 87 -24 79 -16 -5 4 -27 11 -49 14 -22 3 -35 4 -30
2z"/>
</g>
</svg>
